<svg width="1440" height="224" viewBox="0 0 1440 224" fill="none" xmlns="http://www.w3.org/2000/svg">
<path d="M0 111.75L34.3 124.205C68.6 136.195 137 161.805 206 142.83C274.3 124.555 343 61.6953 411 55.875C480 50.0547 549 98.9453 617 124.205C685.7 149 754 149 823 149C891.4 149 960 149 1029 136.545C1097.1 124.555 1166 98.9453 1234 74.5C1302.9 50.0547 1371 24.4453 1406 12.4555L1440 0V223.5H1405.7C1371.4 223.5 1303 223.5 1234 223.5C1165.7 223.5 1097 223.5 1029 223.5C960 223.5 891 223.5 823 223.5C754.3 223.5 686 223.5 617 223.5C548.6 223.5 480 223.5 411 223.5C342.9 223.5 274 223.5 206 223.5C137.1 223.5 69 223.5 34 223.5H0V111.75Z" fill="#F4A261"/>
</svg>
