<svg width="1440" height="264" viewBox="0 0 1440 264" fill="none" xmlns="http://www.w3.org/2000/svg">
<path d="M0 70.8258L40 76.691C80 82.999 160 94.0655 240 112.104C320 129.478 400 153.825 480 147.517C560 141.652 640 106.239 720 100.373C800 94.0655 880 118.412 960 153.493C1040 189.238 1120 235.717 1200 253.755C1280 271.13 1360 260.063 1400 253.755L1440 247.89V0H1400C1360 0 1280 0 1200 0C1120 0 1040 0 960 0C880 0 800 0 720 0C640 0 560 0 480 0C400 0 320 0 240 0C160 0 80 0 40 0H0V70.8258Z" fill="#F4A261"/>
</svg>
